<svg xmlns="http://www.w3.org/2000/svg" width="128" height="128" viewBox="0 0 128 128">
  <title>Emulator in VS Code Panel</title>
  <defs>
    <linearGradient id="tile" x1="0" y1="0" x2="1" y2="1">
      <stop offset="0" stop-color="#2489e6"/>
      <stop offset="1" stop-color="#005fb8"/>
    </linearGradient>
  </defs>
  <rect width="128" height="128" rx="28" fill="url(#tile)"/>
  <rect x="16" y="22" width="30" height="84" rx="8" fill="#ffffff" fill-opacity="0.18"/>
  <rect x="23" y="34" width="16" height="4" rx="2" fill="#ffffff" fill-opacity="0.55"/>
  <rect x="23" y="44" width="11" height="4" rx="2" fill="#ffffff" fill-opacity="0.35"/>
  <rect x="23" y="54" width="14" height="4" rx="2" fill="#ffffff" fill-opacity="0.35"/>
  <rect x="58" y="18" width="52" height="92" rx="12" fill="#1f1f1f" stroke="#ffffff" stroke-width="6"/>
  <path d="M64 66 L104 46 V87 a5 5 0 0 1 -5 5 H69 a5 5 0 0 1 -5 -5 Z" fill="#75beff" fill-opacity="0.9"/>
  <path d="M64 29 a5 5 0 0 1 5 -5 H99 a5 5 0 0 1 5 5 V46 L64 66 Z" fill="#89d185" fill-opacity="0.9"/>
  <path d="M78 101 h12" stroke="#ffffff" stroke-width="5" stroke-linecap="round"/>
</svg>
